<svg xmlns="http://www.w3.org/2000/svg" viewBox="0 0 64 64">
  <defs>
    <linearGradient id="g" x1="0" y1="0" x2="1" y2="1">
      <stop offset="0%" stop-color="#ff7a00"/>
      <stop offset="100%" stop-color="#ff9a44"/>
    </linearGradient>
  </defs>
  <rect width="64" height="64" rx="16" fill="url(#g)"/>
  <path d="M16 28h28v10a10 10 0 0 1-10 10H26a10 10 0 0 1-10-10V28z" fill="#fff"/>
  <path d="M44 30h3a6 6 0 0 1 0 12h-3v-4h3a2 2 0 0 0 0-4h-3z" fill="#fff"/>
  <rect x="20" y="16" width="3" height="8" rx="1.5" fill="#fff"/>
  <rect x="27" y="14" width="3" height="10" rx="1.5" fill="#fff"/>
  <rect x="34" y="16" width="3" height="8" rx="1.5" fill="#fff"/>
</svg>
